<?xml version="1.0" encoding="utf-8"?>
<!-- Generator: Adobe Illustrator 19.2.0, SVG Export Plug-In . SVG Version: 6.00 Build 0)  -->
<svg version="1.1" id="Layer_1" xmlns="http://www.w3.org/2000/svg" xmlns:xlink="http://www.w3.org/1999/xlink" x="0px" y="0px"
	 width="24px" height="22px" viewBox="0 0 24 22" style="enable-background:new 0 0 24 22;" xml:space="preserve">
<style type="text/css">
	.st0{fill:#00A8DD;}
</style>
<g transform="translate(384 48)">
	<path class="st0" d="M-372-36.3c-0.3,0-0.7-0.1-1-0.3c-0.6-0.5-0.7-1.4-0.2-2.1l7.5-8.8c0.5-0.6,1.5-0.7,2.1-0.2
		c0.6,0.5,0.7,1.4,0.2,2.1l-7.5,8.8C-371.1-36.4-371.6-36.3-372-36.3z M-360-37.7v1.5c0,0.8-0.7,1.5-1.5,1.5L-363-26h-18l-1.5-8.8
		c-0.8,0-1.5-0.7-1.5-1.5v-1.5c0-0.8,0.7-1.5,1.5-1.5h8.8l0,0.1c-0.8,0.9-0.7,2.3,0.3,3.1c0.4,0.3,0.9,0.5,1.4,0.5
		c0.7,0,1.3-0.3,1.7-0.8l2.5-2.9h6.3C-360.7-39.2-360-38.5-360-37.7L-360-37.7z M-377.3-32.6c0-0.4-0.3-0.7-0.7-0.7
		c-0.4,0-0.7,0.3-0.7,0.7v4.4c0,0.4,0.3,0.7,0.7,0.7c0.4,0,0.7-0.3,0.7-0.7V-32.6z M-374.3-32.6c0-0.4-0.3-0.7-0.7-0.7
		c-0.4,0-0.7,0.3-0.7,0.7v4.4c0,0.4,0.3,0.7,0.7,0.7c0.4,0,0.7-0.3,0.7-0.7V-32.6z M-371.3-32.6c0-0.4-0.3-0.7-0.7-0.7
		c-0.4,0-0.7,0.3-0.7,0.7v4.4c0,0.4,0.3,0.7,0.7,0.7c0.4,0,0.7-0.3,0.7-0.7V-32.6z M-368.3-32.6c0-0.4-0.3-0.7-0.7-0.7
		c-0.4,0-0.7,0.3-0.7,0.7v4.4c0,0.4,0.3,0.7,0.7,0.7c0.4,0,0.7-0.3,0.7-0.7V-32.6z M-365.3-32.6c0-0.4-0.3-0.7-0.7-0.7
		c-0.4,0-0.7,0.3-0.7,0.7v4.4c0,0.4,0.3,0.7,0.7,0.7c0.4,0,0.7-0.3,0.7-0.7V-32.6z"/>
</g>
</svg>
