<?xml version="1.0" encoding="utf-8"?>
<!-- Generator: Adobe Illustrator 27.8.1, SVG Export Plug-In . SVG Version: 6.00 Build 0)  -->
<svg version="1.1" id="Layer_1" focusable="false" xmlns="http://www.w3.org/2000/svg" xmlns:xlink="http://www.w3.org/1999/xlink"
	 x="0px" y="0px" viewBox="0 0 576.2 448.1" style="enable-background:new 0 0 576.2 448.1;" xml:space="preserve">
<style type="text/css">
	.st0{fill:#FFFFFF;}
</style>
<path class="st0" d="M569.9,409.1c-0.5-0.4-22.6-24.2-37.9-54.9c27.5-27.1,44-61.1,44-98.2c0-80-76.5-146.1-176.2-157.9
	C368.4,40.5,294.3,0,208,0C93.1,0,0,71.6,0,160c0,37,16.5,71,44,98.2c-15.3,30.7-37.3,54.5-37.7,54.9c-6.3,6.7-8.1,16.5-4.4,25
	c3.6,8.5,12,14,21.2,14c53.5,0,96.7-20.2,125.2-38.8c9.1,2.1,18.4,3.7,28,4.8c31.5,57.5,105.5,98,191.8,98c20.8,0,40.8-2.4,59.8-6.8
	c28.5,18.5,71.6,38.8,125.2,38.8c9.2,0,17.5-5.5,21.2-14C577.9,425.6,576.2,415.8,569.9,409.1L569.9,409.1z M155.4,282l-13.2-3
	l-11.4,7.4c-20.1,13.1-50.5,28.2-87.7,32.5c8.8-11.3,20.2-27.6,29.5-46.4L83,251.7l-16.5-16.3C50.7,219.9,32,194.2,32,160
	c0-70.6,79-128,176-128s176,57.4,176,128s-79,128-176,128C190.3,288,172.6,286,155.4,282z M445.2,382.4l-11.4-7.4l-13.2,3.1
	c-17.2,4-34.9,6-52.6,6c-65.1,0-122-25.9-152.4-64.3C326.9,316.6,416,246.4,416,160c0-9.5-1.3-18.7-3.3-27.7
	C488.1,146.8,544,196.7,544,256c0,34.2-18.7,59.9-34.5,75.4L493,347.7l10.3,20.7c9.4,18.9,20.8,35.2,29.5,46.4
	C495.7,410.6,465.3,395.4,445.2,382.4L445.2,382.4z"/>
</svg>
