<?xml version="1.0" encoding="utf-8"?>
<!-- Generator: Adobe Illustrator 19.2.1, SVG Export Plug-In . SVG Version: 6.00 Build 0)  -->
<svg version="1.1" xmlns="http://www.w3.org/2000/svg" xmlns:xlink="http://www.w3.org/1999/xlink" x="0px" y="0px" width="296px"
	 height="62.5px" viewBox="0 0 296 62.5" style="enable-background:new 0 0 296 62.5;" xml:space="preserve">
<style type="text/css">
	.st0{fill:#FFFFFF;}
	.st1{fill:#00A3D7;}
</style>
<g id="delete_background">
</g>
<g id="Layer_1">
	<rect y="55.8" class="st0" width="112.5" height="1"/>
	<g>
		<path class="st0" d="M5.4,43.7L15.3,0h27.9l-1,4.6H21.3L18,19.3H35l-1,4.6H16.9l-4.5,19.9H5.4z"/>
	</g>
	<g>
		<path class="st0" d="M57.9,43l2.9-12.9c-2.8,4.1-5.8,7.4-9.1,9.9c-3.3,2.5-6.4,3.7-9.3,3.7c-2.1,0-3.7-0.8-5-2.3
			c-1.2-1.6-1.9-3.3-1.9-5.2c0-3.8,1.2-7.9,3.7-12.1c2.4-4.2,5.4-7.5,9-9.8c3.5-2.3,7.3-3.5,11.4-3.5c0.8,0,1.6,0.1,2.5,0.2
			c0.9,0.1,1.9,0.3,2.9,0.6h6.5L64.5,43H57.9z M62.4,23.3L64,16c-0.8-0.4-1.6-0.6-2.4-0.8c-0.8-0.2-1.7-0.3-2.6-0.3
			c-2.5,0-5,0.9-7.6,2.7c-2.6,1.8-4.7,4.5-6.4,7.9c-1.7,3.5-2.5,6.6-2.5,9.4c0,0.9,0.2,1.6,0.7,2.2c0.4,0.6,1.1,0.9,2,0.9
			C48.5,38.2,54.2,33.2,62.4,23.3z"/>
	</g>
	<g>
		<path class="st0" d="M71.5,41.3l1.1-4.8c4.5,2,8.3,2.9,11.3,2.9c1.8,0,3.2-0.4,4.3-1.1c1-0.8,1.5-1.7,1.5-2.9
			c0-0.8-0.2-1.4-0.6-2.1c-0.4-0.6-1.2-1.5-2.4-2.6l-3-2.7c-2.5-2.3-4.1-4-4.8-5.2c-0.7-1.2-1-2.4-1-3.5c0-2,1-4,3-5.8
			c2-1.9,5.1-2.8,9.3-2.8c1.3,0,2.5,0.1,3.9,0.2c1.3,0.2,3.4,0.7,6.1,1.6l-1.1,4.8c-2.7-1.1-4.6-1.8-5.8-2c-1.2-0.2-2.3-0.3-3.4-0.3
			c-1.9,0-3.3,0.4-4.2,1.1c-0.9,0.7-1.3,1.6-1.3,2.6c0,0.7,0.2,1.3,0.6,1.9c0.4,0.6,1.4,1.6,3,3.1l3.3,2.9c1.8,1.6,3.1,3,3.8,4.3
			c0.8,1.2,1.1,2.6,1.1,4.1c0,2.6-1.2,4.8-3.5,6.4c-2.3,1.6-5.4,2.4-9.4,2.4c-1.1,0-2.3-0.1-3.6-0.2c-1.2-0.2-2.4-0.4-3.6-0.7
			C75.1,42.5,73.5,42,71.5,41.3z"/>
	</g>
	<g>
		<path class="st0" d="M119.9,43.1c-1.7,0.4-3.2,0.6-4.6,0.6c-3.3,0-5.8-0.6-7.6-1.9c-1.8-1.3-2.6-2.9-2.6-4.9
			c0-1.3,0.2-2.8,0.6-4.7l4.1-17.2H104l1-4.4h5.8l1.4-5.9l7.2-0.7l-1.6,6.6h9.8l-1.1,4.4h-9.7l-4.2,17.8c-0.4,1.6-0.6,2.7-0.6,3.3
			c0,0.8,0.3,1.6,1,2.2c0.7,0.7,2,1,3.8,1c1.2,0,2.6-0.2,4.2-0.6L119.9,43.1z"/>
	</g>
	<g>
		<path class="st0" d="M127.8,43.7l10.7-43.6h11.2l-9.3,37.6h24.9l-1.5,6H127.8z"/>
	</g>
	<g>
		<path class="st0" d="M186.6,43.1l2.5-12.4c-1.9,3.7-4.2,6.8-6.9,9.3c-2.7,2.5-5.2,3.8-7.7,3.8c-1.9,0-3.5-0.8-4.6-2.4
			c-1.1-1.6-1.7-3.2-1.7-5c0-3.6,1.1-7.5,3.4-11.6c2.3-4.1,4.9-7.2,7.8-9.2c2.9-2,5.9-3,8.8-3c0.6,0,1.3,0.1,2,0.2
			c0.7,0.1,1.5,0.3,2.3,0.5h8l-5.9,29.8H186.6z M190.5,23.6l1-4.9c-0.6-0.3-1.3-0.6-1.9-0.8c-0.6-0.2-1.3-0.2-1.9-0.2
			c-1.6,0-3.2,0.7-4.8,2.1c-1.6,1.4-3.1,3.7-4.4,6.9c-1.3,3.2-2,5.8-2,7.7c0,0.5,0.1,1,0.4,1.5c0.2,0.5,0.7,0.7,1.2,0.7
			c1.4,0,3.5-1.5,6.1-4.6C186.7,28.9,188.8,26.1,190.5,23.6z"/>
	</g>
	<g>
		<path class="st0" d="M255.9,40.2c-2.8,1.3-5.5,2.2-8.1,2.7c-2.5,0.5-4.7,0.8-6.4,0.8c-2.3,0-4.3-0.4-6.1-1.3
			c-1.8-0.9-3.1-2.1-3.9-3.7c-0.8-1.6-1.2-3.2-1.2-5c0-3.5,0.9-6.9,2.8-10.3c1.9-3.4,4.3-6,7.2-7.9c2.9-1.9,6-2.8,9.3-2.8
			c2.4,0,4.3,0.6,5.6,1.8c1.3,1.2,2,2.7,2,4.6c0,2.2-0.7,4.2-2.2,6.2s-3.6,3.6-6.5,5c-2.9,1.3-6.3,2.1-10.2,2.3
			c0.1,2.3,0.7,3.9,1.9,4.7c1.1,0.8,2.4,1.2,3.8,1.2c1.4,0,3.3-0.4,5.7-1.1c2.4-0.7,4.9-1.8,7.5-3.3L255.9,40.2z M238.9,27.5
			c3.6,0,6.3-0.7,8.1-2.2c1.8-1.5,2.7-3,2.7-4.6c0-0.7-0.2-1.3-0.7-1.9c-0.5-0.5-1.1-0.8-2-0.8c-1.4,0-2.9,0.8-4.5,2.4
			C240.9,22,239.7,24.3,238.9,27.5z"/>
	</g>
	<g>
		<path class="st0" d="M258,43.7l8.5-42.8h8L266,43.7H258z"/>
	</g>
	<g>
		<path class="st0" d="M270.2,41.8l1.1-5.8c3.8,1.8,7,2.7,9.6,2.7c1.1,0,2.1-0.3,2.9-0.9c0.8-0.6,1.2-1.4,1.2-2.4
			c0-0.6-0.1-1.1-0.4-1.6c-0.3-0.5-1-1.4-2.3-2.6l-2-2c-2.1-2.1-3.4-3.6-3.9-4.7c-0.5-1.1-0.8-2.1-0.8-3.2c0-2.1,1-4.1,2.9-5.9
			c2-1.8,4.9-2.8,9-2.8c3,0,5.9,0.4,8.5,1.3l-1.1,5.5c-2.7-1.2-5.1-1.8-7.2-1.8c-1.4,0-2.5,0.3-3.2,0.9c-0.7,0.6-1,1.4-1,2.2
			c0,0.6,0.2,1.2,0.5,1.7c0.3,0.5,1.1,1.3,2.2,2.4l2.3,2.1c1.5,1.4,2.6,2.6,3.3,3.8c0.7,1.2,1.1,2.5,1.1,3.9c0,2.6-1.1,4.8-3.2,6.5
			c-2.2,1.7-5.2,2.6-9,2.6C277.3,43.7,273.9,43.1,270.2,41.8z"/>
	</g>
	<g>
		<polygon class="st1" points="214.3,0.2 206.3,0.2 203.7,13.3 		"/>
		<path class="st0" d="M228.4,14.9c-1.1-1.6-2.7-2.3-4.6-2.3c-2.4,0-5,1.3-7.7,3.8c-2.7,2.5-5,5.6-6.9,9.3L214,2.1l-10.6,13.1
			L197.8,43h8c0.8,0.2,1.6,0.4,2.3,0.5c0.7,0.1,1.4,0.2,1.9,0.2c2.9,0,5.9-1,8.8-3c2.9-2,5.6-5.1,7.8-9.2c2.3-4.1,3.4-8,3.4-11.6
			C230.1,18.1,229.6,16.4,228.4,14.9z M220,29.6c-1.3,3.2-2.8,5.5-4.4,6.9c-1.6,1.4-3.2,2.1-4.9,2.1c-0.6,0-1.2-0.1-1.9-0.3
			c-0.6-0.2-1.3-0.4-1.9-0.7l1-4.9c1.6-2.6,3.8-5.4,6.4-8.5c2.6-3.1,4.6-4.6,6-4.6c0.6,0,1,0.2,1.3,0.7c0.2,0.5,0.4,1,0.4,1.5
			C222,23.8,221.3,26.4,220,29.6z"/>
	</g>
	<g>
		<path class="st0" d="M124.6,62.1c-0.6-0.2-1.2-0.4-1.7-0.6c-0.5-0.2-1.1-0.6-1.8-1.1c-0.3,0-0.5,0-0.7,0c-0.8,0-1.4-0.1-1.9-0.4
			c-0.5-0.3-0.8-0.6-1.1-1.1c-0.3-0.5-0.4-1-0.4-1.7c0-0.9,0.2-1.8,0.7-2.7c0.5-0.9,1.1-1.6,1.9-2.1c0.8-0.5,1.7-0.8,2.8-0.8
			c1.1,0,1.9,0.3,2.5,0.9c0.6,0.6,0.9,1.4,0.9,2.3c0,0.7-0.1,1.3-0.4,2s-0.6,1.3-1.1,1.8c-0.5,0.6-1.1,1-1.8,1.4
			c0.3,0.2,0.7,0.3,1,0.4c0.3,0.1,0.7,0.2,1.1,0.3c0.4,0.1,0.8,0.2,1.4,0.2L124.6,62.1z M120.6,59.3c0.5,0,1.1-0.2,1.6-0.5
			c0.5-0.4,0.9-0.9,1.2-1.6c0.3-0.7,0.5-1.4,0.5-2.2c0-0.7-0.2-1.3-0.5-1.6c-0.3-0.4-0.8-0.5-1.3-0.5c-0.5,0-1,0.2-1.5,0.6
			c-0.5,0.4-0.9,0.9-1.2,1.6c-0.3,0.7-0.5,1.4-0.5,2.2c0,0.7,0.2,1.3,0.5,1.6C119.7,59.2,120.1,59.3,120.6,59.3z"/>
		<path class="st0" d="M129.9,60.3l0.5-2.6c-0.4,0.8-0.9,1.5-1.4,2c-0.5,0.5-1,0.7-1.5,0.7c-0.3,0-0.5-0.1-0.7-0.3
			c-0.2-0.2-0.3-0.5-0.3-0.9c0-0.2,0-0.5,0.1-0.7l0.9-4.4h1.7l-0.9,4.3c0,0.1,0,0.2,0,0.2c0,0.2,0.1,0.3,0.2,0.3
			c0.2,0,0.6-0.3,1-0.9c0.4-0.6,0.8-1.2,1.2-1.8l0.4-2.1h1.7l-1.2,6.2H129.9z"/>
		<path class="st0" d="M137.6,60.3l0.5-2.6c-0.4,0.8-0.9,1.4-1.4,1.9c-0.6,0.5-1.1,0.8-1.6,0.8c-0.4,0-0.7-0.2-1-0.5
			c-0.2-0.3-0.4-0.7-0.4-1c0-0.8,0.2-1.6,0.7-2.4c0.5-0.9,1-1.5,1.6-1.9c0.6-0.4,1.2-0.6,1.8-0.6c0.1,0,0.3,0,0.4,0
			c0.1,0,0.3,0.1,0.5,0.1h1.7l-1.2,6.2H137.6z M138.5,56.2l0.2-1c-0.1-0.1-0.3-0.1-0.4-0.2c-0.1,0-0.3-0.1-0.4-0.1
			c-0.3,0-0.7,0.1-1,0.4c-0.3,0.3-0.6,0.8-0.9,1.4c-0.3,0.7-0.4,1.2-0.4,1.6c0,0.1,0,0.2,0.1,0.3c0.1,0.1,0.1,0.1,0.3,0.1
			c0.3,0,0.7-0.3,1.3-1C137.7,57.3,138.1,56.7,138.5,56.2z"/>
		<path class="st0" d="M141.3,60.3l1.8-9h1.7l-1.8,9H141.3z"/>
		<path class="st0" d="M145,60.3l1.2-6.2h1.7l-1.2,6.2H145z M146.5,53l0.3-1.5h1.7l-0.3,1.5H146.5z"/>
		<path class="st0" d="M151.8,60.2c-0.4,0.1-0.8,0.2-1.1,0.2c-0.6,0-1-0.1-1.3-0.4c-0.2-0.3-0.4-0.6-0.4-0.9c0-0.2,0-0.5,0.1-0.9
			l0.6-3.2h-0.9l0.2-1.1h0.9l0.2-1.1l1.7-0.2l-0.3,1.3h1.3l-0.2,1.1h-1.3l-0.6,3c0,0.2-0.1,0.4-0.1,0.6c0,0.2,0.1,0.4,0.2,0.5
			c0.1,0.1,0.3,0.1,0.4,0.1c0.2,0,0.4,0,0.7-0.1L151.8,60.2z"/>
		<path class="st0" d="M153.2,62.5l1.8-2.2l-1.1-6.2h1.7l0.8,4.2l2.7-4.2h1.4l-5.6,8.5H153.2z"/>
		<path class="st0" d="M164.2,60.3l1.7-8.4h1.7l-1.4,7.2h3.9l-0.2,1.2H164.2z"/>
		<path class="st0" d="M174.8,60.3l0.5-2.6c-0.4,0.8-0.9,1.4-1.4,1.9c-0.6,0.5-1.1,0.8-1.6,0.8c-0.4,0-0.7-0.2-1-0.5
			c-0.2-0.3-0.4-0.7-0.4-1c0-0.8,0.2-1.6,0.7-2.4c0.5-0.9,1-1.5,1.6-1.9c0.6-0.4,1.2-0.6,1.8-0.6c0.1,0,0.3,0,0.4,0
			c0.1,0,0.3,0.1,0.5,0.1h1.7l-1.2,6.2H174.8z M175.6,56.2l0.2-1c-0.1-0.1-0.3-0.1-0.4-0.2c-0.1,0-0.3-0.1-0.4-0.1
			c-0.3,0-0.7,0.1-1,0.4c-0.3,0.3-0.6,0.8-0.9,1.4c-0.3,0.7-0.4,1.2-0.4,1.6c0,0.1,0,0.2,0.1,0.3c0.1,0.1,0.1,0.1,0.3,0.1
			c0.3,0,0.7-0.3,1.3-1C174.8,57.3,175.2,56.7,175.6,56.2z"/>
		<path class="st0" d="M178.4,60.3l1.8-9h1.7l-1.1,5.3c0.4-0.8,0.9-1.4,1.4-1.9c0.6-0.5,1.1-0.8,1.6-0.8c0.4,0,0.7,0.2,1,0.5
			c0.2,0.3,0.4,0.7,0.4,1.1c0,0.8-0.2,1.6-0.7,2.4c-0.5,0.9-1,1.5-1.6,1.9c-0.6,0.4-1.2,0.6-1.9,0.6c-0.1,0-0.3,0-0.4,0
			c-0.1,0-0.3-0.1-0.5-0.1H178.4z M180.5,58.1l-0.2,1c0.1,0.1,0.3,0.1,0.4,0.2c0.1,0,0.3,0.1,0.4,0.1c0.3,0,0.7-0.1,1-0.4
			c0.3-0.3,0.6-0.8,0.9-1.5c0.3-0.7,0.4-1.2,0.4-1.6c0-0.1,0-0.2-0.1-0.3c-0.1-0.1-0.1-0.1-0.3-0.1c-0.3,0-0.7,0.3-1.3,1
			C181.3,57,180.9,57.6,180.5,58.1z"/>
		<path class="st0" d="M191.3,59.7c-0.6,0.3-1.2,0.5-1.7,0.6c-0.5,0.1-1,0.2-1.3,0.2c-0.5,0-0.9-0.1-1.3-0.3
			c-0.4-0.2-0.6-0.4-0.8-0.8c-0.2-0.3-0.2-0.7-0.2-1c0-0.7,0.2-1.5,0.6-2.2c0.4-0.7,0.9-1.3,1.5-1.7c0.6-0.4,1.3-0.6,1.9-0.6
			c0.5,0,0.9,0.1,1.2,0.4c0.3,0.2,0.4,0.6,0.4,1c0,0.5-0.2,0.9-0.5,1.3c-0.3,0.4-0.8,0.8-1.4,1c-0.6,0.3-1.3,0.4-2.1,0.5
			c0,0.5,0.2,0.8,0.4,1c0.2,0.2,0.5,0.2,0.8,0.2c0.3,0,0.7-0.1,1.2-0.2c0.5-0.1,1-0.4,1.6-0.7L191.3,59.7z M187.7,57
			c0.8,0,1.3-0.2,1.7-0.5c0.4-0.3,0.6-0.6,0.6-1c0-0.1,0-0.3-0.1-0.4c-0.1-0.1-0.2-0.2-0.4-0.2c-0.3,0-0.6,0.2-0.9,0.5
			C188.1,55.9,187.8,56.4,187.7,57z"/>
		<path class="st0" d="M192.6,60.3l1.8-9h1.7l-1.8,9H192.6z"/>
		<path class="st0" d="M196,60l0.2-1.2c0.8,0.4,1.5,0.6,2,0.6c0.2,0,0.4-0.1,0.6-0.2c0.2-0.1,0.2-0.3,0.2-0.5c0-0.1,0-0.2-0.1-0.3
			c-0.1-0.1-0.2-0.3-0.5-0.5l-0.4-0.4c-0.4-0.4-0.7-0.8-0.8-1c-0.1-0.2-0.2-0.4-0.2-0.7c0-0.4,0.2-0.9,0.6-1.2
			c0.4-0.4,1-0.6,1.9-0.6c0.6,0,1.2,0.1,1.8,0.3l-0.2,1.2c-0.6-0.2-1.1-0.4-1.5-0.4c-0.3,0-0.5,0.1-0.7,0.2
			c-0.1,0.1-0.2,0.3-0.2,0.5c0,0.1,0,0.2,0.1,0.4c0.1,0.1,0.2,0.3,0.5,0.5l0.5,0.4c0.3,0.3,0.5,0.6,0.7,0.8c0.2,0.2,0.2,0.5,0.2,0.8
			c0,0.5-0.2,1-0.7,1.4c-0.5,0.4-1.1,0.5-1.9,0.5C197.5,60.4,196.8,60.3,196,60z"/>
		<path class="st0" d="M202.8,60.3h-0.7l0.4-1.8h1.8l-0.3,1.4c-0.1,0.7-0.4,1.2-0.7,1.6c-0.3,0.4-0.9,0.6-1.5,0.6l0.1-0.6
			c0.2,0,0.4-0.1,0.5-0.2c0.1-0.1,0.3-0.4,0.3-0.7L202.8,60.3z"/>
		<path class="st0" d="M209.8,60.3l1.7-8.4h3.5c0.9,0,1.6,0.1,2,0.3c0.4,0.2,0.8,0.5,1,0.9c0.3,0.4,0.4,1,0.4,1.7
			c0,1-0.2,1.9-0.7,2.8c-0.5,0.9-1.1,1.5-1.8,2c-0.7,0.5-1.7,0.7-2.9,0.7H209.8z M211.8,59.1h1c0.8,0,1.4-0.2,2-0.5
			c0.5-0.3,0.9-0.9,1.3-1.5c0.3-0.7,0.5-1.4,0.5-2.1c0-0.7-0.2-1.2-0.6-1.5c-0.4-0.3-1.2-0.5-2.3-0.5H213L211.8,59.1z"/>
		<path class="st0" d="M224.3,59.7c-0.6,0.3-1.2,0.5-1.7,0.6c-0.5,0.1-1,0.2-1.3,0.2c-0.5,0-0.9-0.1-1.3-0.3
			c-0.4-0.2-0.6-0.4-0.8-0.8c-0.2-0.3-0.2-0.7-0.2-1c0-0.7,0.2-1.5,0.6-2.2c0.4-0.7,0.9-1.3,1.5-1.7c0.6-0.4,1.3-0.6,1.9-0.6
			c0.5,0,0.9,0.1,1.2,0.4c0.3,0.2,0.4,0.6,0.4,1c0,0.5-0.2,0.9-0.5,1.3c-0.3,0.4-0.8,0.8-1.4,1c-0.6,0.3-1.3,0.4-2.1,0.5
			c0,0.5,0.2,0.8,0.4,1c0.2,0.2,0.5,0.2,0.8,0.2c0.3,0,0.7-0.1,1.2-0.2c0.5-0.1,1-0.4,1.6-0.7L224.3,59.7z M220.7,57
			c0.8,0,1.3-0.2,1.7-0.5c0.4-0.3,0.6-0.6,0.6-1c0-0.1,0-0.3-0.1-0.4c-0.1-0.1-0.2-0.2-0.4-0.2c-0.3,0-0.6,0.2-0.9,0.5
			C221.1,55.9,220.9,56.4,220.7,57z"/>
		<path class="st0" d="M225.6,60.3l1.8-9h1.7l-1.8,9H225.6z"/>
		<path class="st0" d="M229.3,60.3l1.2-6.2h1.7l-1.2,6.2H229.3z M230.7,53l0.3-1.5h1.7l-0.3,1.5H230.7z"/>
		<path class="st0" d="M234.3,60.3l-1-6.2h1.7l0.7,4.6l2.8-4.6h1.4l-3.8,6.2H234.3z"/>
		<path class="st0" d="M245.1,59.7c-0.6,0.3-1.2,0.5-1.7,0.6c-0.5,0.1-1,0.2-1.3,0.2c-0.5,0-0.9-0.1-1.3-0.3
			c-0.4-0.2-0.6-0.4-0.8-0.8c-0.2-0.3-0.2-0.7-0.2-1c0-0.7,0.2-1.5,0.6-2.2c0.4-0.7,0.9-1.3,1.5-1.7c0.6-0.4,1.3-0.6,1.9-0.6
			c0.5,0,0.9,0.1,1.2,0.4c0.3,0.2,0.4,0.6,0.4,1c0,0.5-0.2,0.9-0.5,1.3c-0.3,0.4-0.8,0.8-1.4,1c-0.6,0.3-1.3,0.4-2.1,0.5
			c0,0.5,0.2,0.8,0.4,1c0.2,0.2,0.5,0.2,0.8,0.2c0.3,0,0.7-0.1,1.2-0.2c0.5-0.1,1-0.4,1.6-0.7L245.1,59.7z M241.5,57
			c0.8,0,1.3-0.2,1.7-0.5c0.4-0.3,0.6-0.6,0.6-1c0-0.1,0-0.3-0.1-0.4c-0.1-0.1-0.2-0.2-0.4-0.2c-0.3,0-0.6,0.2-0.9,0.5
			C241.9,55.9,241.7,56.4,241.5,57z"/>
		<path class="st0" d="M246.4,60.3l1.2-6.2h1.7l-0.5,2.6c0.4-0.8,0.9-1.5,1.5-2c0.5-0.5,1-0.7,1.5-0.7c0.2,0,0.3,0,0.5,0.1l-0.5,1.6
			c-0.2-0.1-0.3-0.1-0.5-0.1c-0.4,0-0.9,0.3-1.4,0.9c-0.5,0.6-1,1.2-1.4,1.9l-0.4,2.1H246.4z"/>
		<path class="st0" d="M257.6,59.7c-0.6,0.3-1.2,0.5-1.7,0.6c-0.5,0.1-1,0.2-1.3,0.2c-0.5,0-0.9-0.1-1.3-0.3
			c-0.4-0.2-0.6-0.4-0.8-0.8c-0.2-0.3-0.2-0.7-0.2-1c0-0.7,0.2-1.5,0.6-2.2c0.4-0.7,0.9-1.3,1.5-1.7c0.6-0.4,1.3-0.6,1.9-0.6
			c0.5,0,0.9,0.1,1.2,0.4c0.3,0.2,0.4,0.6,0.4,1c0,0.5-0.2,0.9-0.5,1.3c-0.3,0.4-0.8,0.8-1.4,1c-0.6,0.3-1.3,0.4-2.1,0.5
			c0,0.5,0.2,0.8,0.4,1c0.2,0.2,0.5,0.2,0.8,0.2c0.3,0,0.7-0.1,1.2-0.2c0.5-0.1,1-0.4,1.6-0.7L257.6,59.7z M254.1,57
			c0.8,0,1.3-0.2,1.7-0.5c0.4-0.3,0.6-0.6,0.6-1c0-0.1,0-0.3-0.1-0.4c-0.1-0.1-0.2-0.2-0.4-0.2c-0.3,0-0.6,0.2-0.9,0.5
			C254.5,55.9,254.2,56.4,254.1,57z"/>
		<path class="st0" d="M262.7,60.3l0.5-2.6c-0.4,0.8-0.9,1.4-1.4,1.9c-0.6,0.5-1.1,0.8-1.6,0.8c-0.4,0-0.7-0.2-1-0.5
			c-0.2-0.3-0.4-0.7-0.4-1c0-0.8,0.2-1.6,0.7-2.4c0.5-0.9,1-1.5,1.6-1.9c0.6-0.4,1.2-0.6,1.8-0.6c0.2,0,0.5,0,0.9,0.1l0.5-2.7h1.7
			l-1.8,9H262.7z M263.6,56.2l0.2-1c-0.3-0.1-0.5-0.2-0.8-0.2c-0.3,0-0.7,0.1-1,0.4c-0.3,0.3-0.6,0.8-0.9,1.4
			c-0.3,0.7-0.4,1.2-0.4,1.6c0,0.1,0,0.2,0.1,0.3c0.1,0.1,0.1,0.1,0.3,0.1c0.3,0,0.7-0.3,1.3-1C262.8,57.3,263.2,56.7,263.6,56.2z"
			/>
		<path class="st0" d="M270.3,60.3l1.7-8.4h5.3L277,53h-3.5l-0.5,2.5h2.8l-0.2,1.1h-2.8l-0.7,3.6H270.3z"/>
		<path class="st0" d="M280.8,60.3l0.5-2.6c-0.4,0.8-0.9,1.4-1.4,1.9c-0.6,0.5-1.1,0.8-1.6,0.8c-0.4,0-0.7-0.2-1-0.5
			c-0.2-0.3-0.4-0.7-0.4-1c0-0.8,0.2-1.6,0.7-2.4c0.5-0.9,1-1.5,1.6-1.9c0.6-0.4,1.2-0.6,1.8-0.6c0.1,0,0.3,0,0.4,0
			c0.1,0,0.3,0.1,0.5,0.1h1.7l-1.2,6.2H280.8z M281.6,56.2l0.2-1c-0.1-0.1-0.3-0.1-0.4-0.2c-0.1,0-0.3-0.1-0.4-0.1
			c-0.3,0-0.7,0.1-1,0.4c-0.3,0.3-0.6,0.8-0.9,1.4c-0.3,0.7-0.4,1.2-0.4,1.6c0,0.1,0,0.2,0.1,0.3c0.1,0.1,0.1,0.1,0.3,0.1
			c0.3,0,0.7-0.3,1.3-1C280.9,57.3,281.3,56.7,281.6,56.2z"/>
		<path class="st0" d="M284.2,60l0.2-1.2c0.8,0.4,1.5,0.6,2,0.6c0.2,0,0.4-0.1,0.6-0.2c0.2-0.1,0.2-0.3,0.2-0.5c0-0.1,0-0.2-0.1-0.3
			c-0.1-0.1-0.2-0.3-0.5-0.5l-0.4-0.4c-0.4-0.4-0.7-0.8-0.8-1c-0.1-0.2-0.2-0.4-0.2-0.7c0-0.4,0.2-0.9,0.6-1.2
			c0.4-0.4,1-0.6,1.9-0.6c0.6,0,1.2,0.1,1.8,0.3l-0.2,1.2c-0.6-0.2-1.1-0.4-1.5-0.4c-0.3,0-0.5,0.1-0.7,0.2
			c-0.1,0.1-0.2,0.3-0.2,0.5c0,0.1,0,0.2,0.1,0.4c0.1,0.1,0.2,0.3,0.5,0.5l0.5,0.4c0.3,0.3,0.5,0.6,0.7,0.8c0.2,0.2,0.2,0.5,0.2,0.8
			c0,0.5-0.2,1-0.7,1.4c-0.5,0.4-1.1,0.5-1.9,0.5C285.7,60.4,285,60.3,284.2,60z"/>
		<path class="st0" d="M293.6,60.2c-0.4,0.1-0.8,0.2-1.1,0.2c-0.6,0-1-0.1-1.3-0.4c-0.2-0.3-0.4-0.6-0.4-0.9c0-0.2,0-0.5,0.1-0.9
			l0.6-3.2h-0.9l0.2-1.1h0.9l0.2-1.1l1.7-0.2l-0.3,1.3h1.3l-0.2,1.1h-1.3l-0.6,3c0,0.2-0.1,0.4-0.1,0.6c0,0.2,0.1,0.4,0.2,0.5
			c0.1,0.1,0.3,0.1,0.4,0.1c0.2,0,0.4,0,0.7-0.1L293.6,60.2z"/>
	</g>
</g>
</svg>
