<?xml version="1.0" encoding="utf-8"?>
<!-- Generator: Adobe Illustrator 19.2.0, SVG Export Plug-In . SVG Version: 6.00 Build 0)  -->
<svg version="1.1" id="Layer_1" xmlns="http://www.w3.org/2000/svg" xmlns:xlink="http://www.w3.org/1999/xlink" x="0px" y="0px"
	 width="22px" height="22px" viewBox="0 0 22 22" style="enable-background:new 0 0 22 22;" xml:space="preserve">
<style type="text/css">
	.st0{fill:#00A8DD;}
</style>
<g>
	<g>
		<g>
			<g>
				<path class="st0" d="M11,1.1c5.5,0,9.9,4.4,9.9,9.9s-4.4,9.9-9.9,9.9S1.1,16.5,1.1,11S5.5,1.1,11,1.1 M11,0C4.9,0,0,4.9,0,11
					c0,6.1,4.9,11,11,11c6.1,0,11-4.9,11-11C22,4.9,17.1,0,11,0L11,0z"/>
			</g>
		</g>
	</g>
	<path class="st0" d="M7.9,5.4C8.6,5.3,9,6,9.3,6.5C9.7,7,10.1,7.6,9.9,8.3C9.8,8.6,9.5,8.8,9.2,9.1C9,9.3,8.6,9.5,8.5,9.8
		c-0.1,0.5,0.2,1.1,0.4,1.4c0.5,0.7,1,1.4,1.7,1.9c0.3,0.3,0.8,0.7,1.3,0.6c0.7-0.1,0.9-1,1.7-1.1c0.7-0.1,1.2,0.4,1.7,0.8
		c0.4,0.3,1,0.8,1,1.4c0,0.3-0.3,0.6-0.5,0.8c-0.2,0.2-0.5,0.4-0.7,0.6c-0.6,0.4-1.3,0.6-2.1,0.5c-0.8,0-1.4-0.3-2-0.6
		c-1.1-0.6-2-1.4-2.9-2.4c-0.8-0.9-1.6-2-2-3.2c-0.5-1.5-0.2-3.1,0.6-4C6.8,6.2,7,6,7.2,5.8C7.4,5.7,7.6,5.4,7.9,5.4z"/>
</g>
</svg>
